<svg width="62" height="48" viewBox="0 0 62 48" fill="none" xmlns="http://www.w3.org/2000/svg">
<path d="M40.25 0.640205C47.034 6.50772 52.4307 13.7948 56.054 21.9801C59.6773 30.1654 61.4375 39.0466 61.2089 47.9883L2.35706 46.5062C1.51045 46.4849 1.07226 45.4867 1.62951 44.8488L40.25 0.640205Z" fill="#E786D7"/>
<path d="M28.4675 28.6H29.6675V37H28.2875V30.076L26.5955 30.556L26.2595 29.38L28.4675 28.6ZM37.3244 34.204V35.488H36.3644V37H34.9724V35.488H30.8444V34.204L33.7364 28.6H35.2364L32.3444 34.204H34.9724V32.02H36.3644V34.204H37.3244ZM40.8916 31.732C40.5236 32.1 40.0596 32.284 39.4996 32.284C38.9396 32.284 38.4716 32.1 38.0956 31.732C37.7196 31.356 37.5316 30.9 37.5316 30.364C37.5316 29.828 37.7196 29.376 38.0956 29.008C38.4716 28.632 38.9396 28.444 39.4996 28.444C40.0596 28.444 40.5236 28.628 40.8916 28.996C41.2676 29.364 41.4556 29.82 41.4556 30.364C41.4556 30.9 41.2676 31.356 40.8916 31.732ZM39.4876 31.228C39.7436 31.228 39.9516 31.144 40.1116 30.976C40.2716 30.808 40.3516 30.604 40.3516 30.364C40.3516 30.116 40.2716 29.908 40.1116 29.74C39.9516 29.572 39.7436 29.488 39.4876 29.488C39.2396 29.488 39.0356 29.572 38.8756 29.74C38.7156 29.908 38.6356 30.116 38.6356 30.364C38.6356 30.604 38.7156 30.808 38.8756 30.976C39.0356 31.144 39.2396 31.228 39.4876 31.228ZM38.2396 35.764L43.7716 29.608L44.4196 29.98L38.8876 36.148L38.2396 35.764ZM43.3396 37.144C42.7796 37.144 42.3116 36.96 41.9356 36.592C41.5596 36.216 41.3716 35.76 41.3716 35.224C41.3716 34.688 41.5596 34.236 41.9356 33.868C42.3116 33.492 42.7796 33.304 43.3396 33.304C43.8916 33.304 44.3556 33.492 44.7316 33.868C45.1076 34.236 45.2956 34.688 45.2956 35.224C45.2956 35.76 45.1076 36.216 44.7316 36.592C44.3556 36.96 43.8916 37.144 43.3396 37.144ZM43.3276 36.088C43.5836 36.088 43.7916 36.004 43.9516 35.836C44.1116 35.668 44.1916 35.464 44.1916 35.224C44.1916 34.976 44.1116 34.768 43.9516 34.6C43.7916 34.432 43.5836 34.348 43.3276 34.348C43.0796 34.348 42.8756 34.432 42.7156 34.6C42.5556 34.768 42.4756 34.976 42.4756 35.224C42.4756 35.464 42.5556 35.668 42.7156 35.836C42.8756 36.004 43.0796 36.088 43.3276 36.088Z" fill="white"/>
</svg>
